<svg xmlns="http://www.w3.org/2000/svg" width="15" height="13" viewBox="0 0 15 13" fill="none">
<path fill-rule="evenodd" clip-rule="evenodd" d="M2.2457 2H0V0H3H3.7543L3.96152 0.725281L4.32573 2H13H14.2198L13.9806 3.19611L12.9806 8.19611L12.8198 9H12H5H4.2457L4.03848 8.27472L2.2457 2ZM4.89716 4L5.7543 7H11.1802L11.7802 4H4.89716ZM7 11.5C7 12.3284 6.32843 13 5.5 13C4.67157 13 4 12.3284 4 11.5C4 10.6716 4.67157 10 5.5 10C6.32843 10 7 10.6716 7 11.5ZM11.5 13C12.3284 13 13 12.3284 13 11.5C13 10.6716 12.3284 10 11.5 10C10.6716 10 10 10.6716 10 11.5C10 12.3284 10.6716 13 11.5 13Z" fill="white"/>
<script xmlns=""/></svg>