<svg width="48" height="48" viewBox="0 0 48 48" fill="none" role="img" aria-labelledby="uniqueTitleID uniqueDescID" xmlns="http://www.w3.org/2000/svg">
                                    <circle cx="24" cy="24" r="24" fill="#F4F6FB"></circle>
                                    <g clip-path="url(#clip0)">
                                        <path d="M28.196 20.229C28.6232 20.1211 28.9972 20.1211 29.4252 20.0672C28.303 16.947 25.5228 14.5798 22.1023 14.1493L22.0492 14.0954C21.6743 14.0415 21.3542 14.0415 20.9793 14.0415C20.606 14.0415 20.285 14.0415 19.911 14.0954L19.8571 14.1493C15.4205 14.6868 12 18.5071 12 23.0797C12 28.0835 16.0086 32.1186 20.9262 32.1186C21.8352 32.1186 22.6904 32.0108 23.4924 31.7421C23.2784 31.4725 23.1175 31.1499 22.9574 30.8272C22.9043 30.7733 22.9043 30.7194 22.8504 30.6655C22.6761 30.2647 22.5333 29.851 22.4233 29.428C22.1509 29.8621 21.8471 30.2757 21.5142 30.6655V27.3304C21.7282 27.3304 21.9422 27.3304 22.2093 27.3835C22.2093 26.9539 22.2624 26.5773 22.3163 26.1999C22.0492 26.1468 21.7813 26.1468 21.5142 26.1468V23.7249H23.2245C23.4924 23.2953 23.8134 22.8648 24.1335 22.4883H21.6212V20.0664C22.5303 20.0133 23.3854 19.9055 24.1335 19.6907C24.3475 20.4438 24.5607 21.25 24.6146 22.1117C24.9356 21.7883 25.3096 21.5195 25.7368 21.2508C25.64 20.6087 25.4788 19.9779 25.2557 19.368C26.0039 19.0985 26.6458 18.8297 27.18 18.5071C27.5999 19.0288 27.9421 19.6085 28.196 20.2281V20.229ZM20.3912 18.8836C19.6902 18.8205 18.994 18.7124 18.3069 18.5602C19.0019 17.0539 19.911 15.9782 20.392 15.4399V18.8836H20.3912ZM18.5756 15.7086C18.0946 16.3539 17.6135 17.2149 17.1855 18.1836C16.6542 18.0049 16.1362 17.789 15.6353 17.5375C16.461 16.7089 17.4674 16.0829 18.5756 15.7086ZM14.7785 18.4532C15.4197 18.7766 16.1147 19.0985 16.7028 19.3141C16.3591 20.3394 16.1611 21.4079 16.1147 22.4883H13.2831C13.3901 20.9821 13.9242 19.6367 14.7794 18.4532H14.7785ZM16.1686 23.7258C16.2217 24.6937 16.4357 25.7703 16.8098 26.846C16.1686 27.0617 15.4736 27.3835 14.7785 27.7609C13.8999 26.589 13.3801 25.1873 13.2823 23.7258H16.1686ZM17.2908 28.0296C17.7117 28.9331 18.2124 29.7972 18.7871 30.6116C17.6118 30.235 16.4896 29.5897 15.6337 28.7288C16.2226 28.4601 16.7567 28.1905 17.2908 28.0296ZM20.3912 30.7194C19.6496 29.7829 19.0048 28.7736 18.467 27.707C19.1081 27.5452 19.7492 27.4374 20.3912 27.4374V30.7194ZM20.3912 26.1468C19.6431 26.1999 18.8402 26.3077 18.039 26.5234C17.6657 25.5546 17.5048 24.5867 17.3978 23.7258H20.3912V26.1468ZM17.3439 22.4883C17.3978 21.4656 17.5579 20.4977 17.825 19.6907C18.681 19.9063 19.5361 20.0672 20.3381 20.0672V22.4883H17.3439ZM21.6212 18.8836V15.3868C22.1023 15.9243 23.0113 17.0009 23.7056 18.561C23.0644 18.7219 22.3702 18.8836 21.6212 18.8836ZM23.3854 15.7095C24.5076 16.086 25.5228 16.7313 26.3788 17.5383C25.8977 17.8079 25.3627 18.0227 24.8278 18.2375C24.4502 17.3398 23.9657 16.491 23.3846 15.7095H23.3854Z" fill="#2D2D2D"></path>
                                        <path d="M29.6924 33.894C26.218 33.894 23.3855 31.0424 23.3855 27.5456C23.3855 24.0488 26.218 21.1973 29.6924 21.1973C33.1668 21.1973 36.0001 24.0488 36.0001 27.5456C36.0001 31.0424 33.1668 33.894 29.6924 33.894ZM29.6924 22.4348C26.913 22.4348 24.6147 24.7488 24.6147 27.5456C24.6147 30.3432 26.913 32.6565 29.6924 32.6565C32.4718 32.6565 34.7701 30.3432 34.7701 27.5456C34.7701 24.748 32.4726 22.4348 29.6924 22.4348Z" fill="#2D2D2D"></path>
                                        <path d="M28.9525 32.1798V31.2459H28.8363C27.4968 31.1356 26.4493 30.5865 26.1582 29.8176L27.2646 29.5431C27.4388 29.7629 28.021 30.0374 28.7775 30.1469H28.8936V28.4988H28.8355C27.788 28.3346 27.2057 28.1148 26.9735 27.9498H26.9154C26.3912 27.6205 26.1001 27.1809 26.1001 26.7413C26.1001 25.8074 27.2057 25.0941 28.8355 24.929H28.9516V23.9951H30.0581V24.929H30.1742C31.3968 25.0385 32.3282 25.5329 32.6774 26.1922L31.5709 26.5771C31.3387 26.3573 30.8726 26.1375 30.1742 26.0272H30.0581V27.7856H30.1161C30.8726 27.895 31.4548 28.0593 31.8621 28.2799C32.0362 28.3894 32.2112 28.4441 32.2701 28.5536L32.3862 28.6639C32.6185 28.9384 32.7354 29.213 32.7354 29.5431C32.7354 30.4223 31.6298 31.1903 30.0581 31.3554H29.942V32.2893L28.9525 32.1798ZM30.0581 30.1477H30.1742C31.0476 30.0374 31.6879 29.6526 31.6879 29.378C31.6879 29.1035 31.0476 28.7742 30.1742 28.6647H30.0581V30.1469V30.1477ZM28.8355 25.9724C27.846 26.0828 27.2646 26.4668 27.2646 26.7413C27.2646 26.9611 27.846 27.346 28.8355 27.5102H28.9516V25.9724H28.8355Z" fill="#2D2D2D"></path>
                                    </g>
                                    <defs>
                                        <clipPath id="clip0">
                                            <rect width="24" height="24" fill="white" transform="translate(12 12)"></rect>
                                        </clipPath>
                                    </defs>
                                </svg>