<svg width="48" height="48" viewBox="0 0 48 48" fill="none" role="img" aria-labelledby="uniqueTitleID uniqueDescID" xmlns="http://www.w3.org/2000/svg">
                                    <circle cx="24" cy="24" r="24" fill="#F4F6FB"></circle>
                                    <path d="M33.067 26.0646V34.4366H13.387V23.3296H25.76L25.92 22.9946L26.347 21.9346H12.053V35.7766H34.4V22.6046L33.067 26.0646Z" fill="#2D2D2D"></path>
                                    <path d="M27.467 30.1946C27.36 30.1946 27.307 30.1946 27.2 30.1396C26.88 30.0276 26.72 29.5806 26.827 29.2466L27.253 28.1856V28.1296L26.56 24.3896C26.613 24.1116 26.72 23.8326 26.88 23.5526L29.493 16.7436V16.6326C29.493 16.5766 29.44 16.5766 29.44 16.5766L28.427 16.1296H28.373C28.32 16.1296 28.267 16.1856 28.267 16.1856L27.36 18.5856C27.253 18.8656 27.04 19.0326 26.773 19.0326C26.667 19.0326 26.613 19.0326 26.56 18.9766C26.4 18.9206 26.293 18.7526 26.187 18.6416C26.1338 18.4785 26.1338 18.3027 26.187 18.1396L28 13.5066C28.053 13.2836 28.32 13.1166 28.587 13.1166C28.693 13.1166 28.747 13.1166 28.8 13.1716C29.12 13.2836 29.28 13.7296 29.173 14.0646L28.853 14.7906V14.9016C28.853 14.9576 28.907 14.9576 28.907 14.9576L29.92 15.3476H29.973C30.027 15.3476 30.08 15.2926 30.08 15.2926L30.72 13.6736C31.04 12.7806 31.84 12.2236 32.8 12.2236C33.067 12.2236 33.333 12.2786 33.6 12.3906L34.56 12.7806C35.093 13.0046 35.52 13.4506 35.787 14.0086C36 14.5666 36 15.1806 35.787 15.7946L32 25.6746C31.893 25.9526 31.787 26.1766 31.627 26.4546L28.533 28.7446L28.48 28.7996L28.107 29.8046C28.0451 29.9211 27.9531 30.0187 27.8405 30.0873C27.7279 30.156 27.5989 30.193 27.467 30.1946ZM28.213 25.2276H28.16C28.107 25.2276 28.107 25.2836 28.107 25.3396L28.373 26.9576C28.373 27.0136 28.427 27.0136 28.427 27.0696H28.533L29.867 26.1196C29.92 26.1196 29.92 26.0646 29.92 26.0096C29.92 25.9526 29.867 25.9526 29.867 25.8976L28.213 25.2276C28.267 25.2276 28.213 25.2276 28.213 25.2276ZM30.827 17.1906C30.773 17.1906 30.72 17.2466 30.72 17.2466L28.267 23.6646V23.7766C28.267 23.8326 28.32 23.8326 28.32 23.8326L30.773 24.8926H30.827C30.88 24.8926 30.933 24.8366 30.933 24.8366L33.387 18.4186V18.3066C33.387 18.2506 33.333 18.2506 33.333 18.2506L30.827 17.1906ZM32.747 13.5626C32.373 13.5626 32 13.7856 31.893 14.1766L31.253 15.7946C31.253 15.8506 31.253 15.9066 31.307 15.9626L33.76 17.0226H33.813C33.867 17.0226 33.92 16.9666 33.92 16.9666L34.56 15.3486C34.6128 15.2349 34.6401 15.111 34.6401 14.9856C34.6401 14.8603 34.6128 14.7364 34.56 14.6226C34.453 14.3996 34.293 14.1766 34.08 14.1206L33.12 13.7306C33.0743 13.6766 33.0171 13.6334 32.9526 13.6043C32.888 13.5752 32.8178 13.561 32.747 13.5626ZM23.627 26.6226H15.733C15.36 26.6226 15.093 26.2876 15.093 25.9526C15.093 25.5626 15.413 25.2826 15.733 25.2826H23.627C24 25.2826 24.267 25.6186 24.267 25.9526C24.267 26.2876 23.947 26.6226 23.627 26.6226ZM23.627 29.3576H15.733C15.36 29.3576 15.093 29.0226 15.093 28.6876C15.093 28.2976 15.413 28.0176 15.733 28.0176H23.627C24 28.0176 24.267 28.3526 24.267 28.6876C24.267 29.0786 23.947 29.3576 23.627 29.3576ZM29.867 32.7066H24.8C24.427 32.7066 24.16 32.3716 24.16 32.0366C24.16 31.6466 24.48 31.3666 24.8 31.3666H29.867C30.24 31.3666 30.507 31.7016 30.507 32.0366C30.507 32.4266 30.24 32.7066 29.867 32.7066Z" fill="#2D2D2D"></path>
                                </svg>