<svg width="48" height="48" viewBox="0 0 48 48" fill="none" role="img" aria-labelledby="uniqueTitleID uniqueDescID" xmlns="http://www.w3.org/2000/svg">
                                    <circle cx="24" cy="24" r="24" fill="#F4F6FB"></circle>
                                    <g clip-path="url(#clip0)">
                                        <path d="M28.164 13.714L29.364 16H31L28.873 12L19 16H22.49L28.164 13.714Z" fill="#2D2D2D"></path>
                                        <path d="M27 28C27.5523 28 28 27.5523 28 27C28 26.4477 27.5523 26 27 26C26.4477 26 26 26.4477 26 27C26 27.5523 26.4477 28 27 28Z" fill="#2D2D2D"></path>
                                        <path d="M35.25 22.89H34.232V20.794C34.2352 20.4269 34.1653 20.0628 34.0266 19.7229C33.8878 19.383 33.6828 19.0741 33.4236 18.8141C33.1643 18.5541 32.856 18.3483 32.5165 18.2085C32.177 18.0688 31.8131 17.9979 31.446 18H14.786C14.4188 17.9979 14.055 18.0688 13.7155 18.2085C13.376 18.3483 13.0676 18.5541 12.8084 18.8141C12.5492 19.0741 12.3442 19.383 12.2054 19.7229C12.0666 20.0628 11.9968 20.4269 12 20.794V33.206C11.9968 33.5732 12.0666 33.9373 12.2054 34.2772C12.3442 34.6171 12.5492 34.926 12.8084 35.186C13.0676 35.4459 13.376 35.6518 13.7155 35.7916C14.055 35.9313 14.4188 36.0022 14.786 36H31.446C31.8131 36.0022 32.177 35.9313 32.5165 35.7916C32.856 35.6518 33.1643 35.4459 33.4236 35.186C33.6828 34.926 33.8878 34.6171 34.0266 34.2772C34.1653 33.9373 34.2352 33.5732 34.232 33.206V31.11H35.25C35.625 31.11 36 30.788 36 30.358V23.588C36 23.212 35.679 22.89 35.25 22.89ZM32.786 33.206C32.786 33.958 32.196 34.549 31.446 34.549H14.786C14.036 34.549 13.446 33.959 13.446 33.206V20.794C13.446 20.042 14.036 19.451 14.786 19.451H31.446C32.196 19.451 32.786 20.041 32.786 20.794V22.89H26.143C25.7758 22.8879 25.412 22.9588 25.0725 23.0985C24.733 23.2383 24.4246 23.4441 24.1654 23.7041C23.9061 23.9641 23.7012 24.273 23.5624 24.6129C23.4236 24.9528 23.3538 25.3169 23.357 25.684V28.316C23.3538 28.6832 23.4236 29.0473 23.5624 29.3872C23.7012 29.7271 23.9061 30.036 24.1654 30.296C24.4246 30.5559 24.733 30.7618 25.0725 30.9016C25.412 31.0413 25.7758 31.1122 26.143 31.11H32.839V33.206H32.786ZM34.554 29.66H26.143C25.393 29.66 24.803 29.069 24.803 28.316V25.684C24.803 24.931 25.393 24.34 26.143 24.34H34.553V29.66H34.554Z" fill="#2D2D2D"></path>
                                    </g>
                                    <defs>
                                        <clipPath id="clip0">
                                            <rect width="24" height="24" fill="white" transform="translate(12 12)"></rect>
                                        </clipPath>
                                    </defs>
                                </svg>