<svg width="48" height="48" viewBox="0 0 48 48" fill="none" role="img" aria-labelledby="uniqueTitleID uniqueDescID" xmlns="http://www.w3.org/2000/svg">
                                    <circle cx="24" cy="24" r="24" fill="#F4F6FB"></circle>
                                    <path d="M28.488 14H14.512C13.1 14 12 15.222 12 16.667V24.333C12 25.833 13.152 27 14.512 27H15.088V25.611H14.512C13.832 25.611 13.309 25.056 13.309 24.333V18.278H29.69V19.833H31V16.667C31 15.167 29.9 14 28.488 14ZM13.308 16.889V16.667C13.308 15.944 13.832 15.389 14.512 15.389H28.488C29.168 15.389 29.691 15.944 29.691 16.667V16.889H13.31H13.308Z" fill="#2D2D2D"></path>
                                    <path d="M33.488 34H19.512C18.1 34 17 32.778 17 31.333V23.667C17 22.167 18.152 21 19.512 21H33.488C34.9 21 36 22.222 36 23.667V31.333C36 32.833 34.848 34 33.488 34ZM19.512 22.389C18.832 22.389 18.309 22.944 18.309 23.667V31.333C18.309 32.056 18.832 32.611 19.512 32.611H33.488C34.168 32.611 34.691 32.056 34.691 31.333V23.667C34.691 22.944 34.168 22.389 33.488 22.389H19.512Z" fill="#2D2D2D"></path>
                                    <path d="M25.328 31H19.672C19.28 31 19 30.75 19 30.5C19 30.208 19.336 30 19.672 30H25.328C25.72 30 26 30.25 26 30.5C26 30.792 25.72 31 25.328 31ZM29.362 28H19.638C19.266 28 19 27.75 19 27.5C19 27.25 19.319 27 19.638 27H29.362C29.734 27 30 27.25 30 27.5C30 27.75 29.734 28 29.362 28Z" fill="#2D2D2D"></path>
                                </svg>