<svg xmlns="http://www.w3.org/2000/svg" width="60" height="60" viewBox="0 0 60 60" fill="none">
<circle cx="30" cy="30" r="30" fill="white"/>
<path d="M41.4233 33.0955H40.7648V29.5329C40.7648 28.2026 39.6997 27.1203 38.3907 27.1203H37.595L39.9156 22.6536C40.1573 22.1885 40.206 21.6556 40.0528 21.1532C39.8994 20.6502 39.562 20.2381 39.1027 19.9928L30.179 15.2264C29.2326 14.7208 28.0568 15.0906 27.5579 16.0506L21.8067 27.1203H20.374C19.065 27.1203 18 28.2026 18 29.5329V42.5874C18 43.9177 19.065 45 20.374 45H38.3907C39.6998 45 40.7648 43.9177 40.7648 42.5874V39.0248H41.4234C41.7419 39.0248 42 38.7624 42 38.4388V33.6815C41.9999 33.3578 41.7418 33.0955 41.4233 33.0955ZM28.5777 16.5977C28.7801 16.2081 29.2578 16.0583 29.6425 16.2637L38.5663 21.0301C38.7525 21.1295 38.8893 21.2965 38.9514 21.5001C39.0133 21.7031 38.9936 21.9184 38.8959 22.1064L36.291 27.1203H34.7433L36.2145 24.2885C36.286 24.1509 36.3007 23.9901 36.2553 23.8414C36.21 23.6928 36.1084 23.5687 35.9729 23.4962C35.5951 23.2945 35.3176 22.9557 35.1916 22.5424C35.0658 22.13 35.1058 21.6926 35.3042 21.3107C35.3757 21.1731 35.3904 21.0123 35.3451 20.8636C35.2997 20.715 35.1981 20.5909 35.0626 20.5185L32.0364 18.9022C31.755 18.7519 31.4068 18.8614 31.2583 19.1473C30.8477 19.9375 29.8793 20.2415 29.0996 19.8251C28.8181 19.6748 28.4699 19.7844 28.3214 20.0702L24.6586 27.1202H23.1108L28.5777 16.5977ZM34.09 22.8893C34.2493 23.4115 34.5486 23.8647 34.9531 24.2063L33.4392 27.1203H25.9626L29.1007 21.0802C30.1393 21.3759 31.264 21.0227 31.9556 20.1829L34.0683 21.3114C33.9255 21.8241 33.9311 22.3683 34.09 22.8893ZM39.6116 42.5874C39.6116 43.2716 39.0639 43.8281 38.3907 43.8281H20.374C19.7008 43.8281 19.1532 43.2716 19.1532 42.5874V29.5329C19.1532 28.8487 19.7008 28.2922 20.374 28.2922H38.3907C39.0639 28.2922 39.6116 28.8487 39.6116 29.5329V33.0955H37.3603C35.7517 33.0955 34.4429 34.4254 34.4429 36.0602C34.4429 37.6949 35.7516 39.0248 37.3603 39.0248H39.6116V42.5874ZM40.8468 37.8529H37.3602C36.3874 37.8529 35.5961 37.0486 35.5961 36.0601C35.5961 35.0716 36.3874 34.2673 37.3602 34.2673H40.8468V37.8529Z" fill="#2D2D2D" stroke="#2D2D2D" stroke-width="0.7"/>
<script xmlns=""/></svg>