<svg xmlns="http://www.w3.org/2000/svg" width="60" height="60" viewBox="0 0 60 60" fill="none">
<circle cx="30" cy="30" r="30" fill="white"/>
<g clip-path="url(#clip0_185:325)">
<path d="M32.6667 33.3999C32.4001 33.3999 32.2001 33.3333 32.0001 33.1333C31.6001 32.7333 31.6001 32.1333 32.0001 31.7333L33.8001 29.9333C34.1334 29.5333 34.8001 29.5333 35.2001 29.9333L36.1334 30.8666C36.5334 31.2666 37.2001 31.2666 37.6001 30.8666L44.4001 24.0666C44.8001 23.6666 45.4001 23.6666 45.8001 24.0666C46.2001 24.4666 46.2001 25.0666 45.8001 25.4666L38.9334 32.1999C37.8001 33.3333 35.8667 33.3333 34.7334 32.1999L34.4667 31.9999L33.3334 33.1333C33.2001 33.3333 32.9334 33.3999 32.6667 33.3999Z" fill="#2D2D2D"/>
<path d="M19.4667 46.0003C18.8667 46.0003 18.2 45.7336 17.7334 45.267L17.6 45.1336C16.6667 44.2003 16.6667 42.6003 17.6 41.667L25.4667 33.8003L26.8667 35.2003L18.9334 43.0003C18.8 43.1336 18.8 43.267 18.8 43.3336C18.8 43.4003 18.8 43.5336 18.9334 43.667L19.0667 43.8003C19.2667 44.0003 19.6 44.0003 19.8 43.8003L27.6667 35.9336L29.0667 37.3336L21.2 45.267C20.7334 45.7336 20.0667 46.0003 19.4667 46.0003Z" fill="#2D2D2D"/>
<path d="M30.4667 31.1334C30.2 31.1334 30 31.0667 29.8 30.8667C29.4 30.4667 29.4 29.8667 29.8 29.4667L30.9333 28.3334C30.4667 27.8001 30.2667 27.1334 30.2667 26.4667C30.2667 25.6667 30.6 24.9334 31.1333 24.3334L37.8667 17.5334C38.2667 17.1334 38.8667 17.1334 39.2667 17.5334C39.6667 17.9334 39.6667 18.5334 39.2667 18.9334L32.4667 25.7334C32.2667 25.9334 32.2 26.2001 32.2 26.4667C32.2 26.7334 32.3333 27.0001 32.4667 27.2001L32.9333 27.6667C33.1333 27.8667 33.2 28.0667 33.2 28.3334C33.2 28.6001 33.0667 28.8667 32.9333 29.0001L31.1333 30.8001C30.9333 31.0667 30.6667 31.1334 30.4667 31.1334Z" fill="#2D2D2D"/>
<path d="M35.6667 26.4003C35.4001 26.4003 35.2001 26.3336 35.0001 26.1336C34.6001 25.7336 34.6001 25.1336 35.0001 24.7336L40.0001 19.7336C40.4001 19.3336 41.0001 19.3336 41.4001 19.7336C41.8001 20.1336 41.8001 20.7336 41.4001 21.1336L36.4001 26.1336C36.1334 26.3336 35.8667 26.4003 35.6667 26.4003Z" fill="#2D2D2D"/>
<path d="M37.8 28.6C37.5334 28.6 37.3334 28.5333 37.1334 28.3333C36.7334 27.9333 36.7334 27.3333 37.1334 26.9333L42.1334 21.9333C42.5334 21.5333 43.1334 21.5333 43.5334 21.9333C43.9334 22.3333 43.9334 22.9333 43.5334 23.3333L38.5334 28.3333C38.3334 28.5333 38.0667 28.6 37.8 28.6Z" fill="#2D2D2D"/>
<path d="M37.3334 46C36.6667 46 36.0667 45.7333 35.5334 45.2666L24.4001 33.8666L23.1334 34.2C22.7334 34.2666 22.3334 34.2 22.1334 33.8666L14.7334 24.6C14.7334 24.5333 14.6667 24.5333 14.6667 24.4666C13.2667 22.0666 14.4667 19.4666 14.5334 19.3333C14.8001 18.6666 15.2667 18.4666 15.6001 18.4C16.4667 18.2666 17.2001 18.9333 17.8667 19.6L18.0001 19.8L39.2001 41.6666C40.1334 42.6666 40.1334 44.2 39.1334 45.2L39.0667 45.3333C38.6001 45.8 37.9334 46 37.3334 46ZM24.7334 31.8C25.0001 31.8 25.2667 31.9333 25.4001 32.0666L36.9334 43.8666C37.1334 44.0666 37.4667 44.0666 37.6667 43.8666L37.8001 43.7333C38.0001 43.5333 38.0001 43.2 37.8001 43L16.4667 21C16.3334 20.8666 16.2667 20.8 16.1334 20.6666C15.9334 21.3333 15.8001 22.4 16.3334 23.4L23.2667 32.1333L24.4667 31.8C24.5334 31.8 24.6001 31.8 24.7334 31.8Z" fill="#2D2D2D"/>
</g>
<defs>
<clipPath id="clip0_185:325">
<rect width="32" height="32" fill="white" transform="translate(14 14)"/>
</clipPath>
</defs>
<script xmlns=""/></svg>