<svg xmlns="http://www.w3.org/2000/svg" width="60" height="60" viewBox="0 0 60 60" fill="none">
<circle cx="30" cy="30" r="30" fill="white"/>
<g clip-path="url(#clip0_185:203)">
<path d="M37.527 21.9238L38.1629 21.2879C38.8333 20.6176 38.1918 19.4855 37.2727 19.7154L30.9375 21.2993V20.625C30.9375 19.0742 32.1992 17.8125 33.75 17.8125C34.2677 17.8125 34.6875 17.3928 34.6875 16.875C34.6875 16.3572 34.2677 15.9375 33.75 15.9375C31.1653 15.9375 29.0625 18.0403 29.0625 20.625V21.2993L22.7274 19.7155C21.8076 19.4856 21.1672 20.6181 21.8371 21.2879L22.4731 21.9239C17.6217 23.18 14 27.5805 14 32.8125C14 39.0158 19.0747 44.0625 25.3125 44.0625C26.9439 44.0625 28.5185 43.7162 30 43.0326C31.4815 43.7162 33.0561 44.0625 34.6875 44.0625C40.9253 44.0625 46 39.0158 46 32.8125C46 27.5776 42.3755 23.1793 37.527 21.9238ZM29.7726 23.4095C29.9218 23.4462 30.0767 23.4466 30.2273 23.4095L34.4438 22.3554L33.0871 23.7121C32.8018 23.9974 32.731 24.4333 32.9114 24.7942L33.7743 26.5198L30.2964 25.3605C30.1041 25.2964 29.8959 25.2964 29.7035 25.3605L26.2256 26.5198L27.0884 24.7942C27.2689 24.4333 27.1982 23.9974 26.9128 23.7121L25.5561 22.3554L29.7726 23.4095ZM34.6875 42.1875C33.1982 42.1875 31.7649 41.8403 30.4271 41.1557C30.1589 41.0184 29.8411 41.0184 29.5729 41.1557C28.2351 41.8403 26.8018 42.1875 25.3125 42.1875C20.1086 42.1875 15.875 37.9819 15.875 32.8125C15.875 28.1349 19.4406 24.1333 24.0687 23.5195L25.1093 24.5601L23.5365 27.7058C23.1642 28.4501 23.8796 29.2781 24.6714 29.0144L30 27.2382L35.3286 29.0144C36.1222 29.2788 36.8347 28.4481 36.4635 27.7058L34.8907 24.5602L35.9313 23.5196C40.5594 24.1333 44.125 28.1349 44.125 32.8125C44.125 37.9819 39.8914 42.1875 34.6875 42.1875Z" fill="#2D2D2D"/>
</g>
<defs>
<clipPath id="clip0_185:203">
<rect width="32" height="32" fill="white" transform="translate(14 14)"/>
</clipPath>
</defs>
<script xmlns=""/></svg>