<svg xmlns="http://www.w3.org/2000/svg" width="60" height="60" viewBox="0 0 60 60" fill="none">
<circle cx="30" cy="30" r="30" fill="white"/>
<path d="M43.4567 36.5084L40.2065 34.6319L43.0232 32.971C43.5427 32.6647 43.7155 31.9952 43.4091 31.4757C43.1028 30.9564 42.4335 30.7835 41.9138 31.0897L38.0339 33.3775L32.1839 29.9999L38.0329 26.6229L41.914 28.9104C42.088 29.0131 42.279 29.0617 42.4674 29.0617C42.8413 29.0617 43.2054 28.8695 43.4091 28.524C43.7153 28.0045 43.5424 27.335 43.0229 27.0287L40.2058 25.3684L43.4567 23.4915C43.979 23.1899 44.158 22.5221 43.8564 21.9998C43.5549 21.4774 42.887 21.2985 42.3648 21.6001L39.1145 23.4768L39.085 20.2065C39.0796 19.6034 38.5848 19.1161 37.9832 19.1244C37.3802 19.1298 36.8956 19.6231 36.9011 20.2261L36.9418 24.7311L31.092 28.1086V21.3542L35.014 19.1376C35.539 18.8409 35.7241 18.1748 35.4274 17.6496C35.1306 17.1246 34.4644 16.9394 33.9393 17.2362L31.092 18.8456V15.092C31.092 14.4889 30.6031 14 30 14C29.3969 14 28.908 14.4889 28.908 15.092V18.8456L26.0607 17.2364C25.5353 16.9395 24.8695 17.1246 24.5726 17.6497C24.2759 18.1748 24.461 18.841 24.986 19.1378L28.9079 21.3544V28.1086L23.0581 24.7311L23.0987 20.2261C23.1043 19.6231 22.6197 19.1298 22.0166 19.1244C22.0133 19.1244 22.0101 19.1244 22.0066 19.1244C21.4082 19.1244 20.9203 19.6067 20.9149 20.2066L20.8853 23.4768L17.6351 21.6001C17.1129 21.2985 16.445 21.4776 16.1435 21.9998C15.8419 22.5221 16.0209 23.1899 16.5431 23.4915L19.7939 25.3684L16.9764 27.029C16.4569 27.3352 16.284 28.0046 16.5901 28.5243C16.7938 28.8698 17.158 29.062 17.532 29.062C17.7204 29.062 17.9113 29.0132 18.0855 28.9107L21.967 26.6232L27.8162 30.0002L21.966 33.3778L18.0855 31.0896C17.5662 30.7834 16.8965 30.9561 16.5901 31.4756C16.2838 31.9951 16.4566 32.6645 16.9761 32.9707L19.7932 34.6317L16.543 36.5082C16.0207 36.8098 15.8418 37.4776 16.1433 37.9999C16.3455 38.3502 16.7126 38.546 17.09 38.546C17.2752 38.546 17.463 38.4989 17.635 38.3996L20.8852 36.5229L20.9147 39.7934C20.9201 40.3931 21.408 40.8756 22.0065 40.8756C22.0098 40.8756 22.0131 40.8756 22.0165 40.8755C22.6196 40.8701 23.1041 40.3768 23.0986 39.7737L23.058 35.2686L28.9079 31.8911V38.6456L24.986 40.8622C24.461 41.159 24.2759 41.8251 24.5726 42.3503C24.7734 42.7055 25.1434 42.9051 25.5243 42.9051C25.7063 42.9051 25.8909 42.8596 26.0607 42.7636L28.908 41.1545V44.908C28.908 45.5111 29.3969 46 30 46C30.6031 46 31.092 45.5111 31.092 44.908V41.1545L33.9393 42.7636C34.1091 42.8596 34.2936 42.9051 34.4757 42.9051C34.8566 42.9051 35.2266 42.7055 35.4274 42.3503C35.7241 41.8252 35.539 41.159 35.014 40.8622L31.092 38.6456V31.8913L36.9418 35.2686L36.9001 39.7736C36.8944 40.3767 37.3788 40.8701 37.9819 40.8756C37.9854 40.8758 37.9888 40.8758 37.9923 40.8758C38.5905 40.8758 39.0784 40.3934 39.084 39.7938L39.1142 36.5229L42.3649 38.3997C42.5369 38.499 42.7247 38.5462 42.9099 38.5462C43.2873 38.5462 43.6543 38.3502 43.8566 38C44.1581 37.4778 43.9792 36.8099 43.4567 36.5084Z" fill="#2D2D2D"/>
<script xmlns=""/></svg>