<svg xmlns="http://www.w3.org/2000/svg" width="60" height="60" viewBox="0 0 60 60" fill="none">
<circle cx="30" cy="30" r="30" fill="white"/>
<g clip-path="url(#clip0_185:351)">
<path d="M44.5391 34.7906C43.638 34.3083 42.5499 34.3609 41.6994 34.9278L37.2357 37.9037C37.0929 36.4856 35.8926 35.375 34.4375 35.375H29.75L29.1385 34.9164C27.9207 34.003 26.4117 33.5 24.8894 33.5C23.6061 33.5 22.3462 33.849 21.2457 34.5092L20.9999 34.6567V33.8125C20.9999 33.2947 20.5802 32.875 20.0624 32.875H14.9375C14.4197 32.875 14 33.2947 14 33.8125V45.0625C14 45.5802 14.4197 46 14.9375 46H20.0625C20.5802 46 21 45.5802 21 45.0625V44.75H35.7661C36.7241 44.75 37.6467 44.4618 38.4342 43.9165L44.8083 39.5037C45.5545 38.9871 46 38.137 46 37.2294C46 36.2074 45.4403 35.2728 44.5391 34.7906ZM19.125 44.125H15.875V34.75H19.125V44.125ZM43.7411 37.9621L37.3669 42.3749C36.8944 42.7021 36.3409 42.875 35.7661 42.875H21V36.8433L22.2105 36.117C23.0196 35.6316 23.9459 35.375 24.8894 35.375C26.0086 35.375 27.1181 35.7448 28.0134 36.4164L28.875 37.0625C29.0373 37.1842 29.2347 37.25 29.4375 37.25H34.4375C34.9544 37.25 35.375 37.6706 35.375 38.1875C35.375 38.7044 34.9544 39.125 34.4375 39.125H27.5625C27.0448 39.125 26.625 39.5448 26.625 40.0625C26.625 40.5802 27.0448 41 27.5625 41H34.9306C35.6114 41 36.2707 40.8004 36.8374 40.4227L42.7396 36.4879C43.1403 36.2207 43.5128 36.3679 43.6544 36.4437C43.7959 36.5194 44.1251 36.7476 44.1251 37.2294C44.125 37.5218 43.9815 37.7957 43.7411 37.9621Z" fill="#2D2D2D"/>
<path d="M28.1875 29.625C32.0588 29.625 35.2809 26.7944 35.8943 23.0942C36.6796 23.9744 37.3145 24.984 37.7626 26.073H36.9375C36.5737 26.073 36.2428 26.2834 36.0885 26.6129C35.9342 26.9423 35.9844 27.3313 36.2173 27.6107L40.2798 32.4857C40.4579 32.6994 40.7218 32.823 41 32.823C41.2782 32.823 41.5421 32.6994 41.7202 32.4857L45.7827 27.6107C46.0156 27.3313 46.0658 26.9423 45.9115 26.6129C45.7573 26.2834 45.4263 26.073 45.0625 26.073H43.6979C42.8693 22.8005 41.0012 19.839 38.3818 17.6697C35.5243 15.3033 31.9039 14 28.1875 14C23.8797 14 20.375 17.5047 20.375 21.8125C20.375 26.1203 23.8797 29.625 28.1875 29.625ZM34.6745 17.4538C35.5643 17.9135 36.4072 18.4689 37.1859 19.1138C39.6752 21.1753 41.3958 24.0456 42.0308 27.1958C42.119 27.6334 42.5035 27.9481 42.9498 27.9481H43.0609L41 30.4211L38.9391 27.948H39.0716C39.3639 27.948 39.6396 27.8116 39.8169 27.5791C39.9943 27.3467 40.053 27.0447 39.9757 26.7627C39.3057 24.3172 37.8613 22.1083 35.89 20.5023C35.8898 20.5022 35.8896 20.502 35.8894 20.5019C35.701 19.3912 35.2778 18.3594 34.6721 17.46C34.673 17.4579 34.6737 17.4559 34.6745 17.4538ZM28.1875 15.875C31.4614 15.875 34.125 18.5386 34.125 21.8125C34.125 25.0864 31.4614 27.75 28.1875 27.75C24.9136 27.75 22.25 25.0864 22.25 21.8125C22.25 18.5386 24.9136 15.875 28.1875 15.875Z" fill="#2D2D2D"/>
<path d="M28.1875 22.75C28.5321 22.75 28.8125 23.0304 28.8125 23.375C28.8125 23.7196 28.5321 24 28.1875 24C27.8915 24 27.634 23.7901 27.5752 23.5009C27.4722 22.9936 26.9774 22.6659 26.4699 22.7688C25.9624 22.8718 25.6347 23.3667 25.7377 23.8741C25.9077 24.7114 26.4924 25.3827 27.2499 25.6912V25.875C27.2499 26.3927 27.6697 26.8125 28.1874 26.8125C28.7052 26.8125 29.1249 26.3927 29.1249 25.875V25.6919C30.0401 25.3202 30.6874 24.4221 30.6874 23.375C30.6874 21.9965 29.5659 20.875 28.1874 20.875C27.8428 20.875 27.5624 20.5946 27.5624 20.25C27.5624 19.9054 27.8428 19.625 28.1874 19.625C28.4834 19.625 28.7409 19.8349 28.7997 20.1241C28.9027 20.6314 29.3979 20.9592 29.9051 20.8562C30.4124 20.7532 30.7403 20.2583 30.6373 19.7509C30.4673 18.9136 29.8826 18.2424 29.125 17.9339V17.75C29.125 17.2322 28.7053 16.8125 28.1875 16.8125C27.6697 16.8125 27.25 17.2322 27.25 17.75V17.9331C26.3348 18.3048 25.6875 19.2029 25.6875 20.25C25.6875 21.6285 26.809 22.75 28.1875 22.75Z" fill="#2D2D2D"/>
</g>
<defs>
<clipPath id="clip0_185:351">
<rect width="32" height="32" fill="white" transform="translate(14 14)"/>
</clipPath>
</defs>
<script xmlns=""/></svg>