<svg xmlns="http://www.w3.org/2000/svg" width="120" height="152" viewBox="0 0 120 152" fill="none"><path d="M10 2.97l2.754 4.576a1 1 0 00.631.458l5.203 1.205-3.5 4.034a1 1 0 00-.242.742l.462 5.32-4.918-2.083a1 1 0 00-.78 0l-4.918 2.084.462-5.321a1 1 0 00-.241-.742L1.412 9.209l5.203-1.205a1 1 0 00.631-.458L10 2.97zm25 0l2.754 4.576a1 1 0 00.631.458l5.203 1.205-3.5 4.034a1 1 0 00-.242.742l.462 5.32-4.918-2.083a1 1 0 00-.78 0l-4.918 2.084.462-5.321a1 1 0 00-.241-.742l-3.501-4.034 5.203-1.205a1 1 0 00.631-.458L35 2.97zm25 0l2.754 4.576a1 1 0 00.631.458l5.203 1.205-3.5 4.034a1 1 0 00-.242.742l.462 5.32-4.918-2.083a1 1 0 00-.78 0l-4.918 2.084.462-5.321a1 1 0 00-.241-.742l-3.501-4.034 5.203-1.205a1 1 0 00.631-.458L60 2.97zm25 0l2.754 4.576a1 1 0 00.631.458l5.203 1.205-3.5 4.034a1 1 0 00-.242.742l.462 5.32-4.918-2.083a1 1 0 00-.78 0l-4.918 2.084.462-5.321a1 1 0 00-.241-.742l-3.501-4.034 5.203-1.205a1 1 0 00.631-.458L85 2.97zm25 0l2.754 4.576a1 1 0 00.631.458l5.203 1.205-3.501 4.034a1.004 1.004 0 00-.241.742l.462 5.32-4.918-2.083a1 1 0 00-.78 0l-4.918 2.084.462-5.321a1.004 1.004 0 00-.241-.742l-3.501-4.034 5.203-1.205a1 1 0 00.631-.458L110 2.97z" stroke="#FAA720"/><path d="M10 28.97l2.754 4.576a1 1 0 00.631.458l5.203 1.206-3.5 4.033a1 1 0 00-.242.742l.462 5.32-4.918-2.083a1 1 0 00-.78 0l-4.918 2.084.462-5.321a1 1 0 00-.241-.742l-3.501-4.034 5.203-1.205a1 1 0 00.631-.458L10 28.97z" fill="#FAA720" stroke="#FAA720"/><path d="M35 28.97l2.754 4.576a1 1 0 00.631.458l5.203 1.206-3.5 4.033a1 1 0 00-.242.742l.462 5.32-4.918-2.083a1 1 0 00-.78 0l-4.918 2.084.462-5.321a1 1 0 00-.241-.742l-3.501-4.034 5.203-1.205a1 1 0 00.631-.458L35 28.97zm25 0l2.754 4.576a1 1 0 00.631.458l5.203 1.206-3.5 4.033a1 1 0 00-.242.742l.462 5.32-4.918-2.083a1 1 0 00-.78 0l-4.918 2.084.462-5.321a1 1 0 00-.241-.742l-3.501-4.034 5.203-1.205a1 1 0 00.631-.458L60 28.97zm25 0l2.754 4.576a1 1 0 00.631.458l5.203 1.206-3.5 4.033a1 1 0 00-.242.742l.462 5.32-4.918-2.083a1 1 0 00-.78 0l-4.918 2.084.462-5.321a1 1 0 00-.241-.742l-3.501-4.034 5.203-1.205a1 1 0 00.631-.458L85 28.97zm25 0l2.754 4.576a1 1 0 00.631.458l5.203 1.206-3.501 4.033a1.004 1.004 0 00-.241.742l.462 5.32-4.918-2.083a1 1 0 00-.78 0l-4.918 2.084.462-5.321a1.004 1.004 0 00-.241-.742l-3.501-4.034 5.203-1.205a1 1 0 00.631-.458L110 28.97z" stroke="#FAA720"/><path d="M10 54.97l2.754 4.576a1 1 0 00.631.458l5.203 1.206-3.5 4.033a1 1 0 00-.242.742l.462 5.32-4.918-2.083a1 1 0 00-.78 0l-4.918 2.084.462-5.321a1 1 0 00-.241-.742L1.412 61.21l5.203-1.206a1 1 0 00.631-.458L10 54.97z" fill="#FAA720" stroke="#FAA720"/><path d="M34.572 54.712a.5.5 0 01.856 0l2.754 4.576a.5.5 0 00.316.23l5.203 1.204a.5.5 0 01.265.815l-3.501 4.033a.5.5 0 00-.12.372l.461 5.32a.5.5 0 01-.693.504l-4.918-2.083a.5.5 0 00-.39 0l-4.918 2.083a.5.5 0 01-.693-.504l.462-5.32a.5.5 0 00-.12-.371l-3.502-4.034a.5.5 0 01.265-.815l5.203-1.205a.5.5 0 00.316-.229l2.754-4.576z" fill="#FAA720"/><path d="M60 54.97l2.754 4.576a1 1 0 00.631.458l5.203 1.206-3.5 4.033a1 1 0 00-.242.742l.462 5.32-4.918-2.083a1 1 0 00-.78 0l-4.918 2.084.462-5.321a1 1 0 00-.241-.742l-3.501-4.033 5.203-1.206a1 1 0 00.631-.458L60 54.97zm25 0l2.754 4.576a1 1 0 00.631.458l5.203 1.206-3.5 4.033a1 1 0 00-.242.742l.462 5.32-4.918-2.083a1 1 0 00-.78 0l-4.918 2.084.462-5.321a1 1 0 00-.241-.742l-3.501-4.033 5.203-1.206a1 1 0 00.631-.458L85 54.97zm25 0l2.754 4.576a1 1 0 00.631.458l5.203 1.206-3.501 4.033a1.004 1.004 0 00-.241.742l.462 5.32-4.918-2.083a1 1 0 00-.78 0l-4.918 2.084.462-5.321a1.004 1.004 0 00-.241-.742l-3.501-4.033 5.203-1.206a1 1 0 00.631-.458L110 54.97z" stroke="#FAA720"/><path d="M10 80.97l2.754 4.576a1 1 0 00.631.458l5.203 1.206-3.5 4.033a1 1 0 00-.242.742l.462 5.32-4.918-2.083a1 1 0 00-.78 0l-4.918 2.084.462-5.321a1 1 0 00-.241-.742L1.412 87.21l5.203-1.206a1 1 0 00.631-.458L10 80.97z" fill="#FAA720" stroke="#FAA720"/><path d="M34.572 80.712a.5.5 0 01.856 0l2.754 4.576a.5.5 0 00.316.23l5.203 1.204a.5.5 0 01.265.815l-3.501 4.033a.5.5 0 00-.12.372l.461 5.32a.5.5 0 01-.693.504l-4.918-2.083a.5.5 0 00-.39 0l-4.918 2.083a.5.5 0 01-.693-.504l.462-5.32a.5.5 0 00-.12-.371l-3.502-4.034a.5.5 0 01.265-.815l5.203-1.205a.5.5 0 00.316-.229l2.754-4.576zm25 0a.5.5 0 01.856 0l2.754 4.576a.5.5 0 00.316.23l5.203 1.204a.5.5 0 01.265.815l-3.501 4.033a.5.5 0 00-.12.372l.461 5.32a.5.5 0 01-.693.504l-4.918-2.083a.5.5 0 00-.39 0l-4.918 2.083a.5.5 0 01-.693-.504l.462-5.32a.5.5 0 00-.12-.371l-3.502-4.034a.5.5 0 01.265-.815l5.203-1.205a.5.5 0 00.316-.229l2.754-4.576z" fill="#FAA720"/><path d="M85 80.97l2.754 4.576a1 1 0 00.631.458l5.203 1.206-3.5 4.033a1 1 0 00-.242.742l.462 5.32-4.918-2.083a1 1 0 00-.78 0l-4.918 2.084.462-5.321a1 1 0 00-.241-.742l-3.501-4.033 5.203-1.206a1 1 0 00.631-.458L85 80.97zm25 0l2.754 4.576a1 1 0 00.631.458l5.203 1.206-3.501 4.033a1.004 1.004 0 00-.241.742l.462 5.32-4.918-2.083a1 1 0 00-.78 0l-4.918 2.084.462-5.321a1.004 1.004 0 00-.241-.742l-3.501-4.033 5.203-1.206a1 1 0 00.631-.458L110 80.97z" stroke="#FAA720"/><path d="M10 106.97l2.754 4.576c.14.232.367.397.631.458l5.203 1.205-3.5 4.034a1 1 0 00-.242.742l.462 5.321-4.918-2.084a1.006 1.006 0 00-.78 0l-4.918 2.084.462-5.321a1 1 0 00-.241-.742l-3.501-4.034 5.203-1.205a.999.999 0 00.631-.458L10 106.97z" fill="#FAA720" stroke="#FAA720"/><path d="M34.572 106.712a.5.5 0 01.856 0l2.754 4.576c.07.116.184.199.316.229l5.203 1.205a.5.5 0 01.265.815l-3.501 4.034a.5.5 0 00-.12.371l.461 5.32a.5.5 0 01-.693.504l-4.918-2.083a.498.498 0 00-.39 0l-4.918 2.083a.5.5 0 01-.693-.504l.462-5.32a.5.5 0 00-.12-.371l-3.502-4.034a.5.5 0 01.265-.815l5.203-1.205a.498.498 0 00.316-.229l2.754-4.576zm25 0a.5.5 0 01.856 0l2.754 4.576c.07.116.184.199.316.229l5.203 1.205a.5.5 0 01.265.815l-3.501 4.034a.5.5 0 00-.12.371l.461 5.32a.5.5 0 01-.693.504l-4.918-2.083a.498.498 0 00-.39 0l-4.918 2.083a.5.5 0 01-.693-.504l.462-5.32a.5.5 0 00-.12-.371l-3.502-4.034a.5.5 0 01.265-.815l5.203-1.205a.498.498 0 00.316-.229l2.754-4.576zm25 0a.5.5 0 01.856 0l2.754 4.576c.07.116.184.199.316.229l5.203 1.205a.5.5 0 01.265.815l-3.501 4.034a.5.5 0 00-.12.371l.461 5.32a.5.5 0 01-.693.504l-4.918-2.083a.498.498 0 00-.39 0l-4.918 2.083a.5.5 0 01-.693-.504l.462-5.32a.5.5 0 00-.12-.371l-3.502-4.034a.5.5 0 01.265-.815l5.203-1.205a.498.498 0 00.316-.229l2.754-4.576z" fill="#FAA720"/><path d="M110 106.97l2.754 4.576c.14.232.367.397.631.458l5.203 1.205-3.501 4.034a1.003 1.003 0 00-.241.742l.462 5.321-4.918-2.084a1.005 1.005 0 00-.78 0l-4.918 2.084.462-5.321a1.003 1.003 0 00-.241-.742l-3.501-4.034 5.203-1.205a.999.999 0 00.631-.458L110 106.97z" stroke="#FAA720"/><path d="M10 132.97l2.754 4.576c.14.232.367.397.631.458l5.203 1.205-3.5 4.034a1 1 0 00-.242.742l.462 5.321-4.918-2.084a1.006 1.006 0 00-.78 0l-4.918 2.084.462-5.321a1 1 0 00-.241-.742l-3.501-4.034 5.203-1.205a.999.999 0 00.631-.458L10 132.97z" fill="#FAA720" stroke="#FAA720"/><path d="M34.572 132.712a.5.5 0 01.856 0l2.754 4.576c.07.116.184.199.316.229l5.203 1.205a.5.5 0 01.265.815l-3.501 4.034a.5.5 0 00-.12.371l.461 5.32a.5.5 0 01-.693.504l-4.918-2.083a.498.498 0 00-.39 0l-4.918 2.083a.5.5 0 01-.693-.504l.462-5.32a.5.5 0 00-.12-.371l-3.502-4.034a.5.5 0 01.265-.815l5.203-1.205a.498.498 0 00.316-.229l2.754-4.576zm25 0a.5.5 0 01.856 0l2.754 4.576c.07.116.184.199.316.229l5.203 1.205a.5.5 0 01.265.815l-3.501 4.034a.5.5 0 00-.12.371l.461 5.32a.5.5 0 01-.693.504l-4.918-2.083a.498.498 0 00-.39 0l-4.918 2.083a.5.5 0 01-.693-.504l.462-5.32a.5.5 0 00-.12-.371l-3.502-4.034a.5.5 0 01.265-.815l5.203-1.205a.498.498 0 00.316-.229l2.754-4.576zm25 0a.5.5 0 01.856 0l2.754 4.576c.07.116.184.199.316.229l5.203 1.205a.5.5 0 01.265.815l-3.501 4.034a.5.5 0 00-.12.371l.461 5.32a.5.5 0 01-.693.504l-4.918-2.083a.498.498 0 00-.39 0l-4.918 2.083a.5.5 0 01-.693-.504l.462-5.32a.5.5 0 00-.12-.371l-3.502-4.034a.5.5 0 01.265-.815l5.203-1.205a.498.498 0 00.316-.229l2.754-4.576zm25 0a.5.5 0 01.856 0l2.754 4.576c.07.116.184.199.316.229l5.203 1.205a.5.5 0 01.265.815l-3.501 4.034a.502.502 0 00-.121.371l.462 5.32a.5.5 0 01-.693.504l-4.918-2.083a.498.498 0 00-.39 0l-4.918 2.083a.5.5 0 01-.693-.504l.462-5.32a.502.502 0 00-.121-.371l-3.501-4.034a.5.5 0 01.265-.815l5.203-1.205a.499.499 0 00.316-.229l2.754-4.576z" fill="#FAA720"/><script xmlns=""/></svg>